<svg width="17" height="17" viewBox="0 0 17 17" version="1.1" xmlns="http://www.w3.org/2000/svg"
     xmlns:xlink="http://www.w3.org/1999/xlink">
    <title>Alert</title>
    <desc>Created using Figma</desc>
    <g id="Canvas" transform="translate(3318 141)">
        <g id="Alert">
            <g id="Stroke 1378">
                <use xlink:href="#path0_stroke" transform="translate(-3309.5 -134.683)" fill="#D0021B"/>
            </g>
            <g id="Stroke 1379">
                <use xlink:href="#path1_stroke" transform="translate(-3316.67 -139.674)" fill="#D0021B"/>
            </g>
            <g id="Stroke 1380">
                <use xlink:href="#path2_stroke" transform="translate(-3309.83 -127.935)" fill="#D0021B"/>
            </g>
        </g>
    </g>
    <defs>
        <path id="path0_stroke"
              d="M -0.5 4.99043C -0.5 5.26658 -0.276142 5.49043 0 5.49043C 0.276142 5.49043 0.5 5.26658 0.5 4.99043L -0.5 4.99043ZM 0.5 0C 0.5 -0.276142 0.276142 -0.5 0 -0.5C -0.276142 -0.5 -0.5 -0.276142 -0.5 0L 0.5 0ZM 0.5 4.99043L 0.5 0L -0.5 0L -0.5 4.99043L 0.5 4.99043Z"/>
        <path id="path1_stroke"
              d="M 0 14.3478L -0.447214 14.1242C -0.524711 14.2792 -0.516429 14.4633 -0.425325 14.6107C -0.334222 14.7581 -0.173289 14.8478 -4.96507e-17 14.8478L 0 14.3478ZM 4.11277 6.12228L 3.66556 5.89868L 4.11277 6.12228ZM 7.17391 0L 7.62113 -0.223607C 7.53643 -0.392999 7.3633 -0.5 7.17391 -0.5C 6.98453 -0.5 6.8114 -0.392999 6.7267 -0.223607L 7.17391 0ZM 14.3478 14.3478L 14.3478 14.8478C 14.5211 14.8478 14.682 14.7581 14.7732 14.6107C 14.8643 14.4633 14.8725 14.2792 14.795 14.1242L 14.3478 14.3478ZM 0.447214 14.5714L 4.55999 6.34589L 3.66556 5.89868L -0.447214 14.1242L 0.447214 14.5714ZM 4.55999 6.34589L 7.62113 0.223607L 6.7267 -0.223607L 3.66556 5.89868L 4.55999 6.34589ZM 6.7267 0.223607L 13.9006 14.5714L 14.795 14.1242L 7.62113 -0.223607L 6.7267 0.223607ZM 14.3478 13.8478L 0 13.8478L 0 14.8478L 14.3478 14.8478L 14.3478 13.8478Z"/>
        <path id="path2_stroke"
              d="M 0.152174 0.326087C 0.152174 0.229945 0.229945 0.152174 0.326087 0.152174L 0.326087 1.15217C 0.782229 1.15217 1.15217 0.782229 1.15217 0.326087L 0.152174 0.326087ZM 0.326087 0.152174C 0.422229 0.152174 0.5 0.229945 0.5 0.326087L -0.5 0.326087C -0.5 0.782229 -0.130055 1.15217 0.326087 1.15217L 0.326087 0.152174ZM 0.5 0.326087C 0.5 0.422229 0.422229 0.5 0.326087 0.5L 0.326087 -0.5C -0.130055 -0.5 -0.5 -0.130055 -0.5 0.326087L 0.5 0.326087ZM 0.326087 0.5C 0.229945 0.5 0.152174 0.422229 0.152174 0.326087L 1.15217 0.326087C 1.15217 -0.130055 0.782229 -0.5 0.326087 -0.5L 0.326087 0.5Z"/>
    </defs>
</svg>
