<?xml version="1.0" encoding="utf-8"?>
<!-- Generator: Adobe Illustrator 16.0.0, SVG Export Plug-In . SVG Version: 6.00 Build 0)  -->
<!DOCTYPE svg PUBLIC "-//W3C//DTD SVG 1.1//EN" "http://www.w3.org/Graphics/SVG/1.1/DTD/svg11.dtd">
<svg version="1.1" id="Layer_1" xmlns="http://www.w3.org/2000/svg" xmlns:xlink="http://www.w3.org/1999/xlink" x="0px" y="0px"
	 width="202px" height="202px" viewBox="0 0 202 202" enable-background="new 0 0 202 202" xml:space="preserve">
<g>
	<g>
		<image overflow="visible" width="202" height="202" xlink:href="8245E9A0.png" >
		</image>
	</g>
	
		<linearGradient id="SVGID_1_" gradientUnits="userSpaceOnUse" x1="374.3428" y1="-46.2803" x2="374.3428" y2="82.6602" gradientTransform="matrix(0.9975 0.0709 -0.0709 0.9975 -272.6146 31.0194)">
		<stop  offset="0" style="stop-color:#1CB6EA"/>
		<stop  offset="1" style="stop-color:#3E23CA"/>
	</linearGradient>
	<circle fill-rule="evenodd" clip-rule="evenodd" fill="url(#SVGID_1_)" cx="99.455" cy="76.372" r="73.542"/>
	<path fill-rule="evenodd" clip-rule="evenodd" fill="#FFFFFF" d="M80.5,37.36c3.364,0.844,6.106,2.935,9.068,4.569
		c3.701,2.046,7.357,4.174,11.035,6.264c3.551,2.02,7.102,4.035,10.652,6.053c5.429,3.084,10.858,6.165,16.282,9.256
		c3.117,1.775,6.244,3.531,9.323,5.371c1.99,1.188,3.349,2.922,3.699,5.271c0.39,2.588-0.609,4.718-2.559,6.34
		c-1.234,1.026-2.645,1.852-4.018,2.701c-3.542,2.196-7.11,4.352-10.666,6.525c-3.627,2.218-7.255,4.438-10.88,6.659
		c-3.57,2.188-7.137,4.384-10.71,6.571c-3.537,2.162-7.081,4.312-10.618,6.479c-2.403,1.469-4.775,2.998-7.211,4.414
		c-0.974,0.563-2.085,0.896-3.135,1.328c-0.207,0.085-0.425,0.147-0.638,0.22c-0.622,0-1.245,0-1.869,0
		c-0.137-0.045-0.268-0.099-0.406-0.132c-2.018-0.467-3.531-1.612-4.486-3.439c-0.755-1.449-0.936-3.034-0.936-4.65
		c0.004-20.51,0-41.019,0.013-61.527c0-0.824,0.065-1.666,0.237-2.471c0.589-2.738,2.145-4.662,4.883-5.52
		c0.313-0.098,0.63-0.188,0.944-0.282C79.173,37.36,79.836,37.36,80.5,37.36z"/>
</g>

</svg>
