<svg width="29" height="29" viewBox="0 0 29 29" version="1.1" xmlns="http://www.w3.org/2000/svg" xmlns:xlink="http://www.w3.org/1999/xlink">
<title>alert-icon</title>
<desc>Created using Figma</desc>
<g id="Canvas" transform="translate(-7812 102)">
<g id="alert-icon" opacity="0.39923">
<g id="Stroke 98">
<use xlink:href="#path0_stroke" transform="translate(7813 -101)"/>
</g>
<g id="Stroke 99">
<use xlink:href="#path1_stroke" transform="translate(7826 -90)"/>
</g>
<g id="Fill 100">
<use xlink:href="#path2_fill" transform="translate(7825 -80)"/>
</g>
</g>
</g>
<defs>
<path id="path0_stroke" d="M 0 26.6992L -0.447214 26.4756C -0.524711 26.6306 -0.516429 26.8147 -0.425325 26.9621C -0.334222 27.1095 -0.173289 27.1992 9.93014e-17 27.1992L 0 26.6992ZM 13.3496 0L 13.7968 -0.223607C 13.7121 -0.392999 13.539 -0.5 13.3496 -0.5C 13.1602 -0.5 12.9871 -0.392999 12.9024 -0.223607L 13.3496 0ZM 26.6992 26.1992L 0 26.1992L 0 27.1992L 26.6992 27.1992L 26.6992 26.1992ZM 0.447214 26.9228L 13.7968 0.223607L 12.9024 -0.223607L -0.447214 26.4756L 0.447214 26.9228ZM 12.9024 0.223607L 26.252 26.9228L 27.1464 26.4756L 13.7968 -0.223607L 12.9024 0.223607Z"/>
<path id="path1_stroke" d="M 0.5 0C 0.5 -0.276142 0.276142 -0.5 0 -0.5C -0.276142 -0.5 -0.5 -0.276142 -0.5 0L 0.5 0ZM -0.5 7.27999C -0.5 7.55613 -0.276142 7.77999 0 7.77999C 0.276142 7.77999 0.5 7.55613 0.5 7.27999L -0.5 7.27999ZM -0.5 0L -0.5 7.27999L 0.5 7.27999L 0.5 0L -0.5 0Z"/>
<path id="path2_fill" fill-rule="evenodd" d="M 1.21259 0C 0.540659 0 0 0.542884 0 1.21259C 0 1.88229 0.540659 2.42518 1.21259 2.42518C 1.88229 2.42518 2.42518 1.88229 2.42518 1.21259C 2.42518 0.542884 1.88229 0 1.21259 0Z"/>
</defs>
</svg>
