<?xml version="1.0" encoding="utf-8"?>
<!-- Generator: Adobe Illustrator 16.0.0, SVG Export Plug-In . SVG Version: 6.00 Build 0)  -->
<!DOCTYPE svg PUBLIC "-//W3C//DTD SVG 1.1//EN" "http://www.w3.org/Graphics/SVG/1.1/DTD/svg11.dtd">
<svg version="1.1" id="Layer_1" xmlns="http://www.w3.org/2000/svg" xmlns:xlink="http://www.w3.org/1999/xlink" x="0px" y="0px"
	 width="115.854px" height="108.705px" viewBox="0 0 115.854 108.705" enable-background="new 0 0 115.854 108.705"
	 xml:space="preserve">
<g>
	<path opacity="0.4" fill="#15156D" enable-background="new    " d="M115.15,27.156c0,8.946-7.255,16.2-16.2,16.2H24.664
		c-8.947,0-16.202-7.254-16.202-16.2l0,0c0-8.948,7.255-16.201,16.202-16.201h74.285C107.896,10.955,115.15,18.208,115.15,27.156
		L115.15,27.156z"/>
	
		<linearGradient id="SVGID_1_" gradientUnits="userSpaceOnUse" x1="12.3206" y1="23.4438" x2="115.8977" y2="23.4438" gradientTransform="matrix(1 0 0 -1 -0.0449 54.4268)">
		<stop  offset="0" style="stop-color:#00FFCE"/>
		<stop  offset="1" style="stop-color:#00B4CE"/>
	</linearGradient>
	<path fill="url(#SVGID_1_)" d="M111.959,17.623c1.949,2.675,3.111,5.958,3.111,9.52c0,8.946-7.255,16.2-16.2,16.2H24.585
		c-4.93,0-9.337-2.209-12.31-5.684c2.946,4.043,7.705,6.684,13.092,6.684h74.284c8.946,0,16.201-7.254,16.201-16.2
		C115.854,24.124,114.382,20.455,111.959,17.623z"/>
	
		<linearGradient id="SVGID_2_" gradientUnits="userSpaceOnUse" x1="27.0002" y1="51.1997" x2="25.3342" y2="20.5328" gradientTransform="matrix(1 0 0 -1 -0.0449 54.4268)">
		<stop  offset="0" style="stop-color:#00FFCE"/>
		<stop  offset="1" style="stop-color:#00B4CE"/>
	</linearGradient>
	<circle fill="url(#SVGID_2_)" cx="25.655" cy="27.154" r="13.309"/>
	<g>
		<path fill="#FFFFFF" d="M17.766,29.195c0.025,0,0.051,0,0.07,0c0.418,0,0.835,0.002,1.254-0.002c0.062,0,0.084,0.021,0.102,0.076
			c0.229,0.697,0.559,1.34,0.996,1.928c0.769,1.027,1.743,1.785,2.932,2.268c0.694,0.283,1.421,0.443,2.173,0.479
			c1.513,0.073,2.903-0.306,4.16-1.153c1.193-0.808,2.05-1.893,2.565-3.242c0.192-0.504,0.318-1.026,0.385-1.563
			c0.063-0.522,0.067-1.044,0.012-1.568c-0.112-1.023-0.441-1.975-0.987-2.85c-0.51-0.817-1.165-1.496-1.959-2.038
			c-0.714-0.487-1.492-0.824-2.335-1.011c-0.782-0.172-1.566-0.212-2.358-0.106c-1.333,0.179-2.515,0.704-3.536,1.578
			c-0.964,0.824-1.645,1.843-2.044,3.046c-0.02,0.06-0.042,0.082-0.107,0.082c-0.414-0.004-0.828-0.002-1.244-0.002
			c-0.023,0-0.05,0-0.073,0c0.828-3.377,4.107-6.35,8.367-6.104c4.219,0.24,7.599,3.709,7.677,7.992
			c0.076,4.227-3.056,7.682-7.009,8.229C22.356,35.85,18.687,32.873,17.766,29.195z"/>
		<path fill="#FFFFFF" d="M24.231,24.936c0.334-0.334,0.653-0.65,0.968-0.968c1.061,1.06,2.123,2.124,3.182,3.183
			c-1.061,1.062-2.126,2.127-3.187,3.187c-0.31-0.312-0.627-0.629-0.951-0.953c0.509-0.51,1.023-1.023,1.546-1.545
			c-2.77,0-5.527,0-8.292,0c0-0.456,0-0.904,0-1.361c2.759,0,5.521,0,8.275,0C25.259,25.962,24.743,25.447,24.231,24.936z"/>
	</g>
</g>
<g>
	<path opacity="0.4" fill="#15156D" enable-background="new    " d="M115.417,81.193c0,8.946-7.254,16.2-16.199,16.2H24.933
		c-8.947,0-16.202-7.254-16.202-16.2l0,0c0-8.947,7.255-16.201,16.202-16.201h74.285C108.163,64.992,115.417,72.246,115.417,81.193
		L115.417,81.193z"/>
	
		<linearGradient id="SVGID_3_" gradientUnits="userSpaceOnUse" x1="12.5891" y1="-30.5933" x2="116.1653" y2="-30.5933" gradientTransform="matrix(1 0 0 -1 -0.0449 54.4268)">
		<stop  offset="0" style="stop-color:#00FFCE"/>
		<stop  offset="1" style="stop-color:#00B4CE"/>
	</linearGradient>
	<path fill="url(#SVGID_3_)" d="M112.228,71.66c1.949,2.676,3.111,5.959,3.111,9.521c0,8.946-7.256,16.2-16.201,16.2H24.854
		c-4.93,0-9.337-2.209-12.31-5.684c2.946,4.043,7.705,6.684,13.092,6.684h74.283c8.947,0,16.201-7.254,16.201-16.2
		C116.122,78.162,114.65,74.492,112.228,71.66z"/>
	
		<linearGradient id="SVGID_4_" gradientUnits="userSpaceOnUse" x1="27.2683" y1="-2.8403" x2="25.6024" y2="-33.5039" gradientTransform="matrix(1 0 0 -1 -0.0449 54.4268)">
		<stop  offset="0" style="stop-color:#00FFCE"/>
		<stop  offset="1" style="stop-color:#00B4CE"/>
	</linearGradient>
	<circle fill="url(#SVGID_4_)" cx="25.923" cy="81.191" r="13.309"/>
	<g>
		
			<image overflow="visible" enable-background="new    " width="99" height="99" xlink:href="../E1C96C27.png"  transform="matrix(1 0 0 1 -23.5652 31.7026)">
		</image>
	</g>
	<g>
		<path fill="#FFFFFF" d="M18.034,83.232c0.025,0,0.051,0,0.07,0c0.418,0,0.835,0.002,1.254-0.002c0.062,0,0.084,0.021,0.102,0.076
			c0.229,0.697,0.559,1.34,0.996,1.928c0.769,1.027,1.743,1.785,2.932,2.268c0.694,0.283,1.421,0.443,2.173,0.479
			c1.513,0.073,2.903-0.306,4.16-1.153c1.193-0.808,2.05-1.893,2.565-3.242c0.192-0.504,0.318-1.026,0.385-1.563
			c0.063-0.522,0.067-1.044,0.012-1.567c-0.112-1.023-0.441-1.976-0.987-2.851c-0.51-0.817-1.165-1.496-1.959-2.038
			c-0.714-0.486-1.492-0.824-2.335-1.011c-0.782-0.172-1.566-0.212-2.358-0.106c-1.333,0.18-2.515,0.705-3.536,1.578
			c-0.964,0.824-1.645,1.844-2.044,3.047c-0.02,0.06-0.042,0.082-0.107,0.082c-0.414-0.004-0.828-0.002-1.244-0.002
			c-0.023,0-0.05,0-0.073,0c0.828-3.377,4.107-6.351,8.367-6.104c4.219,0.239,7.599,3.709,7.677,7.991
			c0.076,4.228-3.056,7.683-7.009,8.229C22.624,89.887,18.955,86.91,18.034,83.232z"/>
		<path fill="#FFFFFF" d="M24.499,78.973c0.334-0.334,0.653-0.649,0.968-0.968c1.061,1.06,2.123,2.123,3.182,3.183
			c-1.061,1.062-2.126,2.127-3.187,3.187c-0.31-0.312-0.627-0.629-0.951-0.953c0.509-0.51,1.023-1.023,1.546-1.545
			c-2.77,0-5.527,0-8.292,0c0-0.455,0-0.904,0-1.361c2.759,0,5.521,0,8.275,0C25.528,80,25.012,79.484,24.499,78.973z"/>
	</g>
</g>
</svg>
